<svg xmlns="http://www.w3.org/2000/svg" xmlns:xlink="http://www.w3.org/1999/xlink" width="500" zoomAndPan="magnify" viewBox="0 0 375 374.999991" height="500" preserveAspectRatio="xMidYMid meet" version="1.0"><defs><clipPath id="629ba22dc4"><path d="M 62 5.433594 L 315 5.433594 L 315 372.933594 L 62 372.933594 Z M 62 5.433594 " clip-rule="nonzero"/></clipPath></defs><path fill="#348c97" d="M 252.253906 205.160156 L 295.714844 333.886719 C 297.394531 338.855469 296.671875 344.636719 294.011719 348.816406 C 291.347656 352.996094 287.480469 355.015625 283.554688 355.015625 L 93.324219 355.015625 C 89.398438 355.015625 85.527344 352.996094 82.867188 348.816406 C 80.203125 344.636719 79.484375 338.855469 81.164062 333.886719 L 124.621094 205.160156 C 136.136719 171.3125 209.269531 221.128906 252.253906 205.160156 Z M 252.253906 205.160156 " fill-opacity="1" fill-rule="nonzero"/><path fill="#6ecad6" d="M 124.621094 205.160156 L 81.164062 333.886719 C 79.484375 338.855469 80.203125 344.636719 82.867188 348.816406 C 85.53125 352.996094 89.398438 355.015625 93.324219 355.015625 L 283.554688 355.015625 C 287.476562 355.015625 291.347656 352.996094 294.011719 348.816406 C 296.671875 344.636719 297.394531 338.855469 295.714844 333.886719 L 252.253906 205.160156 C 232.992188 158.621094 191.828125 239.679688 124.621094 205.160156 Z M 124.621094 205.160156 " fill-opacity="1" fill-rule="nonzero"/><g clip-path="url(#629ba22dc4)"><path stroke-linecap="round" transform="matrix(0.0203877, 0, 0, 0.0205464, 62.459436, 372.902143)" fill="none" stroke-linejoin="round" d="M 4357.972329 -17666.18647 C 3970.752576 -17666.18647 3659.214071 -17328.155682 3659.214071 -16908.183796 C 3659.214071 -16690.117815 3743.325636 -16494.295705 3878.019097 -16356.269635 C 3997.57631 -16234.023405 4132.652967 -16044.665325 4132.652967 -15865.19341 L 4132.652967 -14148.232751 C 4132.652967 -13636.623723 4049.116197 -13129.007184 3885.683021 -12648.767717 L 299.349854 -2109.165451 C 152.77731 -1678.16669 209.490347 -1196.406274 451.670341 -819.401182 C 693.850335 -442.39609 1090.458394 -217.67596 1513.890187 -217.67596 L 10844.909076 -217.67596 C 11268.340869 -217.67596 11665.140527 -442.39609 11907.128922 -819.401182 C 12149.308916 -1196.406274 12206.213551 -1678.16669 12059.449409 -2109.165451 L 8473.116242 -12648.767717 C 8309.683066 -13129.007184 8226.146296 -13636.623723 8226.146296 -14148.232751 L 8226.146296 -15865.19341 C 8226.146296 -16044.665325 8361.414552 -16234.023405 8480.780166 -16356.269635 C 8615.665225 -16494.295705 8699.585192 -16690.117815 8699.585192 -16908.183796 C 8699.585192 -17328.155682 8388.046687 -17666.18647 8001.018532 -17666.18647 Z M 4357.972329 -17666.18647 " stroke="#ffffff" stroke-width="435.00201" stroke-opacity="1" stroke-miterlimit="4"/></g><path fill="#ffffff" d="M 110.441406 276.753906 L 155.25 276.753906 C 159.632812 276.753906 162.246094 280.308594 161.109375 284.722656 L 155.875 305.089844 C 154.738281 309.503906 150.300781 313.058594 145.917969 313.058594 L 101.109375 313.058594 C 96.730469 313.058594 94.117188 309.503906 95.253906 305.089844 L 100.488281 284.722656 C 101.621094 280.308594 106.0625 276.753906 110.441406 276.753906 Z M 110.441406 276.753906 " fill-opacity="1" fill-rule="nonzero"/><path fill="#ffffff" d="M 112.449219 259.046875 L 112.984375 256.957031 L 116.859375 256.957031 L 113.824219 268.765625 L 111.507812 268.765625 L 114.007812 259.046875 Z M 112.449219 259.046875 " fill-opacity="1" fill-rule="nonzero"/><path fill="#ffffff" d="M 117.597656 262.707031 C 118.078125 260.839844 118.785156 259.375 119.722656 258.316406 C 120.667969 257.257812 121.917969 256.730469 123.472656 256.730469 C 125.027344 256.730469 126 257.257812 126.390625 258.316406 C 126.796875 259.375 126.757812 260.839844 126.277344 262.707031 C 125.792969 264.585938 125.078125 266.058594 124.128906 267.128906 C 123.1875 268.199219 121.941406 268.734375 120.386719 268.734375 C 118.835938 268.734375 117.859375 268.199219 117.457031 267.128906 C 117.066406 266.058594 117.113281 264.585938 117.597656 262.707031 Z M 124.058594 262.707031 C 124.265625 261.910156 124.382812 261.238281 124.414062 260.699219 C 124.460938 260.148438 124.371094 259.699219 124.148438 259.355469 C 123.9375 259.007812 123.53125 258.835938 122.933594 258.835938 C 122.332031 258.835938 121.832031 259.007812 121.433594 259.355469 C 121.042969 259.699219 120.726562 260.148438 120.476562 260.699219 C 120.242188 261.238281 120.019531 261.910156 119.816406 262.707031 C 119.605469 263.527344 119.476562 264.21875 119.425781 264.78125 C 119.382812 265.332031 119.472656 265.78125 119.691406 266.125 C 119.917969 266.460938 120.328125 266.625 120.929688 266.625 C 121.53125 266.625 122.027344 266.460938 122.425781 266.125 C 122.824219 265.78125 123.144531 265.332031 123.382812 264.78125 C 123.621094 264.21875 123.847656 263.527344 124.058594 262.707031 Z M 124.058594 262.707031 " fill-opacity="1" fill-rule="nonzero"/><path fill="#ffffff" d="M 127.980469 262.707031 C 128.460938 260.839844 129.167969 259.375 130.105469 258.316406 C 131.050781 257.257812 132.300781 256.730469 133.855469 256.730469 C 135.410156 256.730469 136.382812 257.257812 136.773438 258.316406 C 137.175781 259.375 137.136719 260.839844 136.660156 262.707031 C 136.175781 264.585938 135.460938 266.058594 134.507812 267.128906 C 133.570312 268.199219 132.324219 268.734375 130.769531 268.734375 C 129.21875 268.734375 128.238281 268.199219 127.839844 267.128906 C 127.449219 266.058594 127.496094 264.585938 127.980469 262.707031 Z M 134.441406 262.707031 C 134.644531 261.910156 134.765625 261.238281 134.796875 260.699219 C 134.839844 260.148438 134.753906 259.699219 134.53125 259.355469 C 134.320312 259.007812 133.914062 258.835938 133.316406 258.835938 C 132.714844 258.835938 132.214844 259.007812 131.816406 259.355469 C 131.425781 259.699219 131.109375 260.148438 130.859375 260.699219 C 130.625 261.238281 130.402344 261.910156 130.199219 262.707031 C 129.988281 263.527344 129.859375 264.21875 129.808594 264.78125 C 129.765625 265.332031 129.851562 265.78125 130.074219 266.125 C 130.300781 266.460938 130.710938 266.625 131.3125 266.625 C 131.910156 266.625 132.410156 266.460938 132.808594 266.125 C 133.207031 265.78125 133.527344 265.332031 133.761719 264.78125 C 134.003906 264.21875 134.230469 263.527344 134.441406 262.707031 Z M 134.441406 262.707031 " fill-opacity="1" fill-rule="nonzero"/><path fill="#ffffff" d="M 150.460938 259.660156 C 151.550781 259.660156 152.34375 260.003906 152.832031 260.683594 C 153.335938 261.351562 153.429688 262.292969 153.121094 263.5 L 151.769531 268.765625 L 149.515625 268.765625 L 150.792969 263.808594 C 150.972656 263.105469 150.933594 262.574219 150.671875 262.207031 C 150.417969 261.828125 149.984375 261.636719 149.371094 261.636719 C 148.761719 261.636719 148.226562 261.828125 147.765625 262.207031 C 147.316406 262.574219 147.003906 263.105469 146.820312 263.808594 L 145.546875 268.765625 L 143.296875 268.765625 L 144.570312 263.808594 C 144.753906 263.105469 144.710938 262.574219 144.453125 262.207031 C 144.199219 261.828125 143.765625 261.636719 143.152344 261.636719 C 142.53125 261.636719 141.992188 261.828125 141.527344 262.207031 C 141.082031 262.574219 140.765625 263.105469 140.585938 263.808594 L 139.3125 268.765625 L 137.0625 268.765625 L 139.367188 259.792969 L 141.617188 259.792969 L 141.339844 260.875 C 141.726562 260.5 142.171875 260.203125 142.675781 259.984375 C 143.195312 259.769531 143.726562 259.660156 144.273438 259.660156 C 144.96875 259.660156 145.550781 259.8125 146.019531 260.117188 C 146.492188 260.40625 146.804688 260.828125 146.964844 261.378906 C 147.386719 260.859375 147.910156 260.445312 148.539062 260.132812 C 149.175781 259.820312 149.816406 259.660156 150.460938 259.660156 Z M 150.460938 259.660156 " fill-opacity="1" fill-rule="nonzero"/><path fill="#ffffff" d="M 156.617188 266.96875 L 160.3125 266.96875 L 159.851562 268.765625 L 153.90625 268.765625 L 156.8125 257.460938 L 159.0625 257.460938 Z M 156.617188 266.96875 " fill-opacity="1" fill-rule="nonzero"/><path fill="#ffffff" d="M 247.195312 316.742188 L 246.761719 314.886719 L 250.386719 306.996094 L 253.113281 306.996094 L 254.910156 314.683594 L 256.382812 314.683594 L 256.863281 316.742188 L 255.390625 316.742188 L 255.953125 319.136719 L 253.609375 319.136719 L 253.050781 316.742188 Z M 251.511719 309.523438 L 249.289062 314.683594 L 252.71875 314.683594 Z M 251.511719 309.523438 " fill-opacity="1" fill-rule="nonzero"/><path fill="#ffffff" d="M 257.4375 312.828125 C 256.984375 310.886719 256.972656 309.363281 257.40625 308.261719 C 257.851562 307.160156 258.882812 306.609375 260.5 306.609375 C 262.117188 306.609375 263.398438 307.160156 264.347656 308.261719 C 265.308594 309.363281 266.015625 310.886719 266.472656 312.828125 C 266.929688 314.785156 266.9375 316.320312 266.492188 317.433594 C 266.0625 318.546875 265.039062 319.101562 263.421875 319.101562 C 261.804688 319.101562 260.515625 318.546875 259.550781 317.433594 C 258.601562 316.320312 257.894531 314.785156 257.4375 312.828125 Z M 264.164062 312.828125 C 263.96875 311.996094 263.75 311.300781 263.507812 310.738281 C 263.273438 310.167969 262.953125 309.699219 262.542969 309.339844 C 262.148438 308.980469 261.636719 308.800781 261.011719 308.800781 C 260.386719 308.800781 259.957031 308.980469 259.714844 309.339844 C 259.488281 309.699219 259.386719 310.167969 259.40625 310.738281 C 259.4375 311.300781 259.550781 311.996094 259.746094 312.828125 C 259.945312 313.683594 260.164062 314.402344 260.402344 314.988281 C 260.636719 315.5625 260.957031 316.027344 261.363281 316.386719 C 261.769531 316.734375 262.285156 316.910156 262.910156 316.910156 C 263.535156 316.910156 263.96875 316.734375 264.207031 316.386719 C 264.449219 316.027344 264.550781 315.5625 264.515625 314.988281 C 264.480469 314.402344 264.363281 313.683594 264.164062 312.828125 Z M 264.164062 312.828125 " fill-opacity="1" fill-rule="nonzero"/><path fill="#ffffff" d="M 246.171875 284.933594 C 245.949219 284.460938 245.671875 284.109375 245.335938 283.871094 C 245.011719 283.636719 244.59375 283.519531 244.082031 283.519531 C 243.3125 283.519531 242.816406 283.832031 242.597656 284.460938 C 242.386719 285.082031 242.4375 286.09375 242.753906 287.496094 C 242.917969 287.046875 243.226562 286.699219 243.679688 286.453125 C 244.132812 286.191406 244.660156 286.0625 245.261719 286.0625 C 245.988281 286.0625 246.667969 286.222656 247.296875 286.535156 C 247.929688 286.851562 248.472656 287.3125 248.925781 287.917969 C 249.378906 288.515625 249.703125 289.234375 249.898438 290.078125 C 250.085938 290.875 250.089844 291.589844 249.914062 292.21875 C 249.746094 292.835938 249.398438 293.320312 248.867188 293.667969 C 248.332031 294.015625 247.644531 294.191406 246.796875 294.191406 C 245.636719 294.191406 244.660156 293.933594 243.871094 293.414062 C 243.09375 292.898438 242.460938 292.179688 241.976562 291.257812 C 241.503906 290.324219 241.105469 289.179688 240.789062 287.816406 C 240.308594 285.761719 240.296875 284.210938 240.753906 283.164062 C 241.210938 282.109375 242.195312 281.578125 243.710938 281.578125 C 244.882812 281.578125 245.867188 281.898438 246.664062 282.539062 C 247.460938 283.179688 248.019531 283.980469 248.34375 284.933594 Z M 245.179688 288.003906 C 244.589844 288.003906 244.136719 288.179688 243.816406 288.527344 C 243.496094 288.875 243.414062 289.378906 243.566406 290.042969 C 243.722656 290.707031 244.03125 291.230469 244.488281 291.613281 C 244.957031 291.992188 245.53125 292.183594 246.210938 292.183594 C 246.8125 292.183594 247.242188 292 247.503906 291.628906 C 247.773438 291.257812 247.832031 290.757812 247.6875 290.128906 C 247.53125 289.476562 247.238281 288.957031 246.804688 288.578125 C 246.378906 288.195312 245.839844 288.003906 245.179688 288.003906 Z M 245.179688 288.003906 " fill-opacity="1" fill-rule="nonzero"/><path fill="#ffffff" d="M 251.234375 287.851562 C 250.78125 285.90625 250.769531 284.382812 251.203125 283.28125 C 251.648438 282.179688 252.679688 281.628906 254.296875 281.628906 C 255.914062 281.628906 257.195312 282.179688 258.144531 283.28125 C 259.105469 284.382812 259.8125 285.90625 260.269531 287.851562 C 260.726562 289.808594 260.734375 291.339844 260.292969 292.453125 C 259.859375 293.566406 258.835938 294.125 257.21875 294.125 C 255.601562 294.125 254.3125 293.566406 253.347656 292.453125 C 252.398438 291.339844 251.691406 289.808594 251.234375 287.851562 Z M 257.960938 287.851562 C 257.765625 287.019531 257.546875 286.324219 257.304688 285.761719 C 257.070312 285.1875 256.746094 284.722656 256.339844 284.363281 C 255.945312 284 255.433594 283.824219 254.808594 283.824219 C 254.183594 283.824219 253.753906 284 253.515625 284.363281 C 253.285156 284.722656 253.183594 285.1875 253.207031 285.761719 C 253.238281 286.324219 253.347656 287.019531 253.542969 287.851562 C 253.742188 288.707031 253.960938 289.425781 254.199219 290.007812 C 254.433594 290.582031 254.753906 291.050781 255.164062 291.410156 C 255.566406 291.757812 256.082031 291.929688 256.707031 291.929688 C 257.332031 291.929688 257.765625 291.757812 258.007812 291.410156 C 258.246094 291.050781 258.347656 290.582031 258.316406 290.007812 C 258.277344 289.425781 258.160156 288.707031 257.960938 287.851562 Z M 257.960938 287.851562 " fill-opacity="1" fill-rule="nonzero"/><path fill="#ffffff" d="M 234.394531 252.621094 C 233.144531 252.035156 232.375 251.132812 232.085938 249.90625 C 231.945312 249.296875 231.96875 248.75 232.152344 248.253906 C 232.347656 247.746094 232.714844 247.347656 233.261719 247.054688 C 233.8125 246.753906 234.535156 246.601562 235.429688 246.601562 C 236.320312 246.601562 237.109375 246.753906 237.792969 247.054688 C 238.488281 247.347656 239.042969 247.746094 239.460938 248.253906 C 239.890625 248.75 240.175781 249.296875 240.316406 249.90625 C 240.460938 250.523438 240.4375 251.070312 240.25 251.542969 C 240.054688 252.003906 239.738281 252.363281 239.296875 252.621094 C 239.972656 252.890625 240.542969 253.285156 241.011719 253.800781 C 241.476562 254.316406 241.792969 254.929688 241.960938 255.640625 C 242.136719 256.402344 242.101562 257.070312 241.84375 257.644531 C 241.597656 258.207031 241.171875 258.640625 240.574219 258.941406 C 239.976562 259.246094 239.257812 259.398438 238.421875 259.398438 C 237.585938 259.398438 236.796875 259.246094 236.058594 258.941406 C 235.328125 258.640625 234.703125 258.207031 234.183594 257.644531 C 233.667969 257.070312 233.324219 256.402344 233.144531 255.640625 C 232.976562 254.929688 233.007812 254.316406 233.230469 253.800781 C 233.453125 253.273438 233.84375 252.878906 234.394531 252.621094 Z M 238.121094 250.242188 C 237.992188 249.691406 237.726562 249.265625 237.320312 248.960938 C 236.925781 248.660156 236.445312 248.507812 235.875 248.507812 C 235.316406 248.507812 234.90625 248.660156 234.644531 248.960938 C 234.390625 249.265625 234.328125 249.699219 234.460938 250.261719 C 234.578125 250.765625 234.84375 251.171875 235.246094 251.472656 C 235.664062 251.777344 236.140625 251.929688 236.675781 251.929688 C 237.210938 251.929688 237.617188 251.777344 237.890625 251.472656 C 238.164062 251.160156 238.238281 250.75 238.121094 250.242188 Z M 237.078125 253.648438 C 236.441406 253.648438 235.960938 253.8125 235.636719 254.136719 C 235.324219 254.464844 235.238281 254.929688 235.378906 255.535156 C 235.507812 256.101562 235.808594 256.558594 236.269531 256.917969 C 236.742188 257.269531 237.308594 257.441406 237.964844 257.441406 C 238.625 257.441406 239.097656 257.261719 239.394531 256.902344 C 239.691406 256.542969 239.773438 256.089844 239.644531 255.535156 C 239.503906 254.941406 239.203125 254.480469 238.734375 254.15625 C 238.265625 253.816406 237.714844 253.648438 237.078125 253.648438 Z M 237.078125 253.648438 " fill-opacity="1" fill-rule="nonzero"/><path fill="#ffffff" d="M 243.15625 252.824219 C 242.703125 250.878906 242.691406 249.355469 243.125 248.253906 C 243.570312 247.152344 244.601562 246.601562 246.21875 246.601562 C 247.835938 246.601562 249.117188 247.152344 250.070312 248.253906 C 251.027344 249.355469 251.738281 250.878906 252.191406 252.824219 C 252.648438 254.777344 252.65625 256.3125 252.214844 257.425781 C 251.78125 258.539062 250.757812 259.09375 249.140625 259.09375 C 247.523438 259.09375 246.234375 258.539062 245.273438 257.425781 C 244.320312 256.3125 243.613281 254.777344 243.15625 252.824219 Z M 249.882812 252.824219 C 249.6875 251.992188 249.46875 251.292969 249.226562 250.730469 C 248.992188 250.160156 248.671875 249.691406 248.261719 249.332031 C 247.867188 248.972656 247.355469 248.792969 246.730469 248.792969 C 246.105469 248.792969 245.675781 248.972656 245.4375 249.332031 C 245.207031 249.691406 245.105469 250.160156 245.128906 250.730469 C 245.160156 251.292969 245.273438 251.992188 245.464844 252.824219 C 245.667969 253.675781 245.882812 254.398438 246.121094 254.980469 C 246.355469 255.554688 246.675781 256.019531 247.085938 256.378906 C 247.488281 256.730469 248.003906 256.902344 248.628906 256.902344 C 249.253906 256.902344 249.6875 256.730469 249.929688 256.378906 C 250.167969 256.019531 250.269531 255.554688 250.238281 254.980469 C 250.199219 254.398438 250.082031 253.675781 249.882812 252.824219 Z M 249.882812 252.824219 " fill-opacity="1" fill-rule="nonzero"/><path fill="#ffffff" d="M 216.125 196.730469 L 215.617188 194.554688 L 219.648438 194.554688 L 222.523438 206.84375 L 220.113281 206.84375 L 217.75 196.730469 Z M 216.125 196.730469 " fill-opacity="1" fill-rule="nonzero"/><path fill="#ffffff" d="M 223.355469 200.539062 C 222.902344 198.59375 222.890625 197.074219 223.324219 195.972656 C 223.769531 194.871094 224.800781 194.320312 226.417969 194.320312 C 228.035156 194.320312 229.316406 194.871094 230.265625 195.972656 C 231.226562 197.074219 231.933594 198.59375 232.390625 200.539062 C 232.847656 202.496094 232.855469 204.03125 232.414062 205.140625 C 231.980469 206.253906 230.957031 206.8125 229.339844 206.8125 C 227.722656 206.8125 226.433594 206.253906 225.472656 205.140625 C 224.519531 204.03125 223.816406 202.496094 223.355469 200.539062 Z M 230.082031 200.539062 C 229.886719 199.707031 229.667969 199.011719 229.425781 198.449219 C 229.191406 197.875 228.871094 197.410156 228.460938 197.050781 C 228.066406 196.691406 227.554688 196.511719 226.929688 196.511719 C 226.308594 196.511719 225.875 196.691406 225.636719 197.050781 C 225.40625 197.410156 225.304688 197.875 225.328125 198.449219 C 225.359375 199.011719 225.472656 199.707031 225.664062 200.539062 C 225.863281 201.394531 226.085938 202.113281 226.320312 202.699219 C 226.554688 203.273438 226.875 203.738281 227.285156 204.097656 C 227.6875 204.445312 228.203125 204.621094 228.828125 204.621094 C 229.453125 204.621094 229.886719 204.445312 230.128906 204.097656 C 230.367188 203.738281 230.46875 203.273438 230.4375 202.699219 C 230.398438 202.113281 230.28125 201.394531 230.082031 200.539062 Z M 230.082031 200.539062 " fill-opacity="1" fill-rule="nonzero"/><path fill="#ffffff" d="M 234.164062 200.539062 C 233.707031 198.59375 233.699219 197.074219 234.132812 195.972656 C 234.578125 194.871094 235.609375 194.320312 237.226562 194.320312 C 238.839844 194.320312 240.125 194.871094 241.074219 195.972656 C 242.035156 197.074219 242.742188 198.59375 243.195312 200.539062 C 243.652344 202.496094 243.664062 204.03125 243.21875 205.140625 C 242.789062 206.253906 241.765625 206.8125 240.148438 206.8125 C 238.53125 206.8125 237.242188 206.253906 236.277344 205.140625 C 235.324219 204.03125 234.621094 202.496094 234.164062 200.539062 Z M 240.886719 200.539062 C 240.695312 199.707031 240.476562 199.011719 240.230469 198.449219 C 239.996094 197.875 239.675781 197.410156 239.269531 197.050781 C 238.871094 196.691406 238.363281 196.511719 237.738281 196.511719 C 237.113281 196.511719 236.679688 196.691406 236.441406 197.050781 C 236.214844 197.410156 236.109375 197.875 236.132812 198.449219 C 236.164062 199.011719 236.277344 199.707031 236.472656 200.539062 C 236.671875 201.394531 236.890625 202.113281 237.128906 202.699219 C 237.363281 203.273438 237.683594 203.738281 238.089844 204.097656 C 238.496094 204.445312 239.011719 204.621094 239.632812 204.621094 C 240.257812 204.621094 240.691406 204.445312 240.933594 204.097656 C 241.175781 203.738281 241.277344 203.273438 241.242188 202.699219 C 241.207031 202.113281 241.089844 201.394531 240.886719 200.539062 Z M 240.886719 200.539062 " fill-opacity="1" fill-rule="nonzero"/><path fill="#ffffff" d="M 192.539062 313.820312 C 191.496094 313.820312 190.746094 314.671875 190.863281 315.71875 C 190.917969 316.222656 191.167969 316.707031 191.5625 317.0625 C 191.953125 317.417969 192.453125 317.617188 192.953125 317.617188 L 237.515625 317.617188 C 238.554688 317.617188 239.304688 316.765625 239.191406 315.71875 C 239.074219 314.671875 238.136719 313.820312 237.097656 313.820312 Z M 192.539062 313.820312 " fill-opacity="1" fill-rule="nonzero"/><path fill="#ffffff" d="M 194.859375 286.484375 C 193.820312 286.484375 193.070312 287.332031 193.1875 288.382812 C 193.300781 289.429688 194.238281 290.277344 195.277344 290.277344 L 231.121094 290.277344 C 231.621094 290.28125 232.078125 290.078125 232.390625 289.722656 C 232.707031 289.367188 232.851562 288.882812 232.792969 288.382812 C 232.679688 287.332031 231.742188 286.484375 230.703125 286.484375 Z M 194.859375 286.484375 " fill-opacity="1" fill-rule="nonzero"/><path fill="#ffffff" d="M 193.136719 254.265625 C 192.09375 254.265625 191.34375 255.113281 191.460938 256.160156 C 191.515625 256.664062 191.765625 257.148438 192.160156 257.503906 C 192.550781 257.859375 193.050781 258.058594 193.550781 258.058594 L 223.582031 258.058594 C 224.082031 258.058594 224.539062 257.859375 224.851562 257.503906 C 225.167969 257.148438 225.3125 256.664062 225.257812 256.160156 C 225.140625 255.113281 224.207031 254.265625 223.164062 254.265625 Z M 193.136719 254.265625 " fill-opacity="1" fill-rule="nonzero"/><path fill="#ffffff" d="M 183.25 199.585938 C 182.210938 199.585938 181.460938 200.4375 181.574219 201.484375 C 181.628906 201.988281 181.882812 202.472656 182.273438 202.828125 C 182.667969 203.183594 183.167969 203.382812 183.667969 203.382812 L 210.792969 203.382812 C 211.832031 203.382812 212.582031 202.53125 212.464844 201.484375 C 212.351562 200.4375 211.414062 199.589844 210.375 199.585938 Z M 183.25 199.585938 " fill-opacity="1" fill-rule="nonzero"/><path fill="#ffffff" d="M 153.773438 131.808594 C 150.988281 131.011719 148.085938 132.640625 147.292969 135.445312 L 138.992188 164.808594 C 138.195312 167.613281 139.808594 170.539062 142.59375 171.339844 C 143.933594 171.722656 145.367188 171.554688 146.582031 170.875 C 147.796875 170.191406 148.691406 169.054688 149.074219 167.707031 L 157.378906 138.339844 C 157.757812 136.992188 157.59375 135.550781 156.917969 134.324219 C 156.242188 133.097656 155.109375 132.195312 153.773438 131.808594 Z M 153.773438 131.808594 " fill-opacity="1" fill-rule="nonzero"/><path fill="#ffffff" d="M 139.277344 183.070312 C 136.492188 182.269531 133.59375 183.894531 132.800781 186.703125 L 129.554688 198.175781 C 128.761719 200.984375 130.375 203.90625 133.15625 204.707031 C 134.496094 205.089844 135.929688 204.925781 137.144531 204.242188 C 138.359375 203.5625 139.257812 202.421875 139.636719 201.074219 L 142.882812 189.597656 C 143.675781 186.792969 142.0625 183.867188 139.277344 183.070312 Z M 139.277344 183.070312 " fill-opacity="1" fill-rule="nonzero"/></svg>