<svg xmlns="http://www.w3.org/2000/svg" xmlns:xlink="http://www.w3.org/1999/xlink" width="500" zoomAndPan="magnify" viewBox="0 0 375 374.999991" height="500" preserveAspectRatio="xMidYMid meet" version="1.0"><path fill="#fcbf95" d="M 296.675781 157.898438 C 298.898438 171.175781 300.695312 187.460938 295.394531 199.835938 C 290.089844 212.214844 283.515625 224.167969 280.378906 237.265625 C 277.421875 249.617188 277.640625 262.605469 274.152344 274.816406 C 271.242188 284.988281 265.878906 294.242188 260.558594 303.375 C 254.21875 314.28125 247.867188 325.179688 241.523438 336.082031 C 236.792969 344.21875 231.832031 352.59375 224.207031 358.105469 C 214.140625 365.371094 201.003906 366.535156 188.597656 366.605469 C 180.050781 366.652344 170.957031 366.136719 163.949219 361.238281 C 160.46875 358.800781 157.753906 355.453125 155.09375 352.140625 C 147.421875 342.605469 139.75 333.078125 132.070312 323.542969 C 128.402344 318.976562 124.710938 314.390625 121.832031 309.285156 C 116.601562 299.988281 114.285156 289.371094 112.039062 278.9375 C 109.929688 269.101562 106.941406 257.515625 104.820312 247.683594 C 97.25 239.308594 91.839844 226.945312 87.433594 216.542969 C 81.015625 201.371094 74.460938 184.910156 78.207031 168.859375 L 187.378906 166.496094 C 187.378906 166.496094 284.351562 146.125 296.675781 157.898438 Z M 296.675781 157.898438 " fill-opacity="1" fill-rule="nonzero"/><path fill="#513620" d="M 218.570312 358.050781 C 198.34375 372.242188 170.871094 362.652344 173.292969 364.078125 C 159.589844 363.429688 136.925781 329.585938 136.925781 329.585938 C 136.417969 323.230469 136.121094 317.953125 135.613281 311.597656 C 135.261719 307.195312 134.925781 302.648438 136.339844 298.46875 C 138.296875 292.691406 143.386719 288.433594 148.953125 285.957031 C 155.40625 283.085938 179.535156 284.390625 186.574219 283.835938 C 192.320312 283.382812 217.332031 280.660156 223.066406 281.261719 C 227.804688 281.761719 232.703125 282.527344 236.683594 285.152344 C 241.195312 288.125 243.996094 293.199219 245.324219 298.4375 C 246.652344 303.675781 246.675781 309.152344 246.691406 314.554688 C 246.707031 321.210938 246.722656 319.480469 246.738281 326.125 C 246.738281 326.125 234.429688 356.609375 218.570312 358.050781 Z M 160.101562 300.121094 C 156.769531 305.574219 155.34375 312.214844 156.558594 318.492188 C 157.300781 322.351562 159.511719 326.515625 163.375 327.207031 C 166.441406 327.753906 169.375 325.929688 171.996094 324.246094 C 176.617188 321.289062 181.441406 318.523438 186.714844 316.988281 C 191.984375 315.457031 197.78125 315.222656 202.871094 317.257812 C 206.101562 318.546875 208.949219 320.699219 212.203125 321.929688 C 215.457031 323.160156 219.539062 323.253906 222.011719 320.800781 C 224.878906 317.960938 224.300781 313.257812 223.464844 309.308594 C 222.683594 305.609375 221.707031 301.828125 219.734375 298.601562 C 200.160156 301.765625 179.824219 302.226562 160.101562 300.121094 Z M 160.101562 300.121094 " fill-opacity="1" fill-rule="nonzero"/><path fill="#010101" d="M 164.316406 201.316406 C 163.375 199.328125 161.773438 197.667969 159.816406 196.660156 C 156.109375 194.75 152.136719 195.445312 148.445312 196.109375 C 144.886719 196.738281 141.25 197.074219 137.628906 197.105469 L 136.253906 197.113281 C 131.09375 197.121094 124.671875 197.144531 120.03125 201.425781 C 118.453125 202.898438 118.351562 205.371094 119.820312 206.960938 C 120.597656 207.792969 121.636719 208.214844 122.691406 208.214844 C 123.636719 208.214844 124.59375 207.871094 125.351562 207.171875 C 127.550781 205.144531 131.398438 204.972656 135.261719 204.957031 C 135.238281 205.121094 135.113281 205.308594 135.113281 205.464844 C 135.105469 207.117188 135.933594 208.714844 137.269531 209.621094 C 138.539062 210.5 139.90625 210.632812 140.835938 210.632812 C 141.054688 210.632812 141.257812 210.625 141.421875 210.617188 C 144.175781 210.492188 148.765625 210.289062 151.777344 206.867188 C 152.074219 206.53125 152.339844 206.171875 152.914062 205.394531 C 153.421875 204.761719 153.632812 204.027344 153.695312 203.273438 C 154.671875 203.21875 155.570312 203.28125 156.226562 203.617188 C 156.675781 203.84375 157.042969 204.230469 157.261719 204.683594 C 158.175781 206.632812 160.515625 207.453125 162.46875 206.53125 C 164.410156 205.605469 165.246094 203.273438 164.316406 201.316406 Z M 164.316406 201.316406 " fill-opacity="1" fill-rule="nonzero"/><path fill="#010101" d="M 251.714844 197.542969 C 240.546875 195.90625 228.917969 194.246094 217.394531 194.632812 C 215.238281 194.710938 213.546875 196.527344 213.625 198.6875 C 213.703125 200.847656 215.464844 202.4375 217.675781 202.460938 C 220.554688 202.34375 223.464844 202.398438 226.390625 202.539062 C 225.945312 204.214844 226.585938 206.039062 228.15625 206.9375 C 230.410156 208.222656 232.960938 208.863281 235.515625 208.863281 C 237.855469 208.863281 240.195312 208.324219 242.304688 207.234375 C 243.449219 206.648438 244.105469 205.566406 244.300781 204.394531 C 245.996094 204.628906 247.703125 204.871094 249.382812 205.113281 C 249.882812 205.285156 250.433594 205.378906 250.972656 205.378906 C 251.605469 205.378906 252.238281 205.253906 252.808594 204.996094 C 254.398438 204.285156 255.289062 202.609375 255.054688 200.886719 C 254.820312 199.164062 253.433594 197.792969 251.714844 197.542969 Z M 251.714844 197.542969 " fill-opacity="1" fill-rule="nonzero"/><path fill="#010101" d="M 187.378906 272.765625 C 186.425781 272.765625 185.394531 272.695312 184.328125 272.476562 C 180.917969 271.757812 178.449219 269.699219 176.265625 267.882812 C 174.867188 266.714844 173.542969 265.613281 172.222656 265.085938 C 170.816406 264.523438 169.15625 264.554688 167.789062 265.171875 C 166.613281 265.707031 164.769531 265.574219 163.675781 264.890625 C 161.992188 263.835938 161.335938 261.933594 161.28125 260.492188 C 161.15625 256.070312 163 251.644531 166.214844 248.648438 C 166.167969 248.671875 166.371094 248.289062 166.839844 247.832031 C 168.40625 246.355469 170.886719 246.425781 172.371094 247.996094 C 173.785156 249.5 173.777344 251.832031 172.402344 253.328125 C 172.183594 253.625 171.730469 254.199219 171.566406 254.355469 C 170.824219 255.050781 170.21875 255.914062 169.796875 256.851562 C 171.621094 256.835938 173.441406 257.132812 175.148438 257.816406 C 177.601562 258.800781 179.550781 260.421875 181.261719 261.855469 C 182.96875 263.269531 184.429688 264.492188 185.949219 264.8125 C 186.785156 264.992188 187.855469 264.9375 188.921875 264.882812 L 195.386719 264.5625 C 196.097656 264.523438 196.90625 264.476562 197.257812 264.320312 C 197.601562 264.164062 198.125 263.632812 198.640625 263.121094 C 199.335938 262.425781 200.042969 261.746094 200.832031 261.179688 C 202.105469 260.273438 203.5 259.703125 204.726562 259.199219 C 205.53125 258.871094 206.859375 258.324219 207.089844 257.996094 C 207.144531 257.59375 206.484375 256.273438 206.085938 255.488281 C 205.382812 254.089844 204.585938 252.507812 204.289062 250.636719 C 203.9375 248.507812 205.390625 246.496094 207.519531 246.152344 C 209.597656 245.757812 211.65625 247.238281 212 249.382812 C 212.117188 250.066406 212.601562 251.035156 213.078125 251.976562 C 214.207031 254.222656 215.746094 257.296875 214.394531 260.8125 C 213.070312 264.25 209.964844 265.527344 207.691406 266.457031 C 206.78125 266.824219 205.914062 267.175781 205.375 267.570312 C 204.929688 267.890625 204.5625 268.28125 204.1875 268.664062 C 203.277344 269.582031 202.136719 270.722656 200.496094 271.46875 C 198.8125 272.234375 197.148438 272.320312 195.808594 272.390625 L 189.3125 272.710938 C 188.722656 272.726562 188.074219 272.765625 187.378906 272.765625 Z M 187.378906 272.765625 " fill-opacity="1" fill-rule="nonzero"/><path fill="#010101" d="M 164.535156 331.222656 C 163.933594 331.222656 163.3125 331.175781 162.6875 331.058594 C 156.824219 330 153.695312 324.261719 152.71875 319.238281 C 151.363281 312.222656 152.84375 304.503906 156.769531 298.078125 C 157.558594 296.785156 159.011719 296.058594 160.515625 296.230469 C 180.261719 298.34375 199.980469 297.824219 219.117188 294.734375 C 220.71875 294.445312 222.253906 295.195312 223.082031 296.550781 C 225.351562 300.261719 226.453125 304.480469 227.304688 308.480469 C 227.960938 311.589844 229.511719 318.875 224.785156 323.574219 C 220.84375 327.457031 214.988281 327.152344 210.835938 325.585938 C 208.972656 324.882812 207.214844 323.917969 205.453125 322.933594 C 204.140625 322.195312 202.824219 321.453125 201.417969 320.878906 C 197.59375 319.355469 192.761719 319.300781 187.808594 320.746094 C 182.820312 322.203125 178.082031 325 174.105469 327.542969 C 171.636719 329.132812 168.375 331.222656 164.535156 331.222656 Z M 162.289062 304.277344 C 160.234375 308.566406 159.542969 313.359375 160.398438 317.75 C 160.875 320.207031 162.226562 323.027344 164.074219 323.355469 C 165.644531 323.636719 168.015625 322.15625 169.890625 320.953125 C 174.332031 318.109375 179.683594 314.960938 185.628906 313.230469 C 190.296875 311.863281 197.34375 310.828125 204.335938 313.617188 C 206.054688 314.3125 207.675781 315.207031 209.285156 316.105469 C 210.695312 316.894531 212.085938 317.695312 213.59375 318.257812 C 215.496094 318.976562 218.085938 319.207031 219.289062 318.015625 C 220.804688 316.503906 220.226562 312.785156 219.664062 310.117188 C 219.078125 307.34375 218.460938 304.957031 217.574219 302.882812 C 199.460938 305.585938 180.886719 306.046875 162.289062 304.277344 Z M 162.289062 304.277344 " fill-opacity="1" fill-rule="nonzero"/><path fill="#231f20" d="M 351.375 117.652344 C 347.855469 114.765625 343.25 113.644531 338.800781 112.707031 C 325.613281 109.933594 307.421875 108.054688 293.980469 107.09375 L 79.503906 115.164062 C 65.097656 117.859375 44.257812 119.699219 29.613281 119.195312 C 26.964844 119.101562 24.109375 119.023438 21.917969 120.519531 C 19.152344 122.429688 18.445312 126.40625 19.472656 129.617188 C 20.496094 132.824219 22.867188 135.402344 25.304688 137.726562 C 40.117188 151.863281 59.414062 160.59375 79.261719 165.601562 C 99.105469 170.605469 119.648438 172.109375 140.070312 173.425781 C 176.046875 175.742188 212.476562 177.496094 247.875 170.675781 C 266.136719 167.152344 283.882812 161.398438 301.566406 155.652344 C 318.285156 150.21875 335.25 144.671875 349.8125 134.8125 C 351.808594 133.46875 353.824219 131.957031 354.902344 129.804688 C 356.960938 125.726562 354.894531 120.542969 351.375 117.652344 Z M 351.375 117.652344 " fill-opacity="1" fill-rule="nonzero"/><path fill="#373837" d="M 80.835938 101.347656 C 80.835938 101.347656 73.601562 143.777344 100.285156 148.398438 C 126.96875 153.015625 227.328125 159.785156 277.609375 140.261719 C 291.390625 135.410156 294.128906 133.835938 295.441406 121.78125 C 296.753906 109.722656 293.980469 98.261719 293.980469 98.261719 C 293.980469 98.261719 247.351562 116.144531 187.378906 115.164062 C 127.410156 114.1875 94.464844 107.898438 80.835938 101.347656 Z M 80.835938 101.347656 " fill-opacity="1" fill-rule="nonzero"/><path fill="#231f20" d="M 89.804688 33.757812 C 89.804688 33.757812 75.609375 93.011719 84.277344 101.285156 C 105.941406 108.855469 158.253906 117.804688 194.871094 115.015625 C 231.488281 112.238281 262.40625 111.679688 293.007812 94.898438 C 288.636719 50.039062 282.058594 25.78125 282.058594 25.78125 C 282.058594 25.78125 223.074219 13.152344 180.863281 14.546875 C 139.023438 21.914062 94.339844 27.816406 89.804688 33.757812 Z M 89.804688 33.757812 " fill-opacity="1" fill-rule="nonzero"/><path fill="#010101" d="M 353.863281 114.632812 C 349.703125 111.21875 344.542969 109.910156 339.605469 108.878906 C 325.339844 105.878906 306.96875 104.171875 297.300781 103.421875 C 296.183594 79.59375 293.484375 53.53125 289.058594 25.457031 C 288.777344 23.671875 287.308594 22.320312 285.515625 22.171875 C 272.261719 21.066406 258.582031 18.90625 245.347656 16.808594 C 215.527344 12.078125 184.648438 7.1875 154.898438 13.714844 C 150.300781 14.726562 145.742188 15.984375 141.1875 17.253906 C 131.921875 19.828125 123.167969 22.265625 114.082031 22.5625 L 111.171875 22.640625 C 102.796875 22.835938 93.308594 23.0625 86.105469 28.511719 C 85.332031 29.089844 84.808594 29.953125 84.628906 30.90625 C 79.558594 57.71875 77.113281 85.277344 77.121094 111.601562 C 62.488281 114.195312 42.941406 115.734375 29.765625 115.273438 C 26.910156 115.171875 22.976562 115.046875 19.722656 117.292969 C 15.726562 120.042969 14.097656 125.601562 15.757812 130.8125 C 17.046875 134.851562 19.816406 137.875 22.617188 140.558594 C 35.785156 153.125 53.210938 162.410156 74.351562 168.28125 C 70.324219 186.121094 78.121094 204.582031 83.828125 218.078125 C 88.601562 229.34375 93.863281 241.039062 101.214844 249.515625 C 102.242188 254.199219 103.4375 259.222656 104.632812 264.257812 C 105.902344 269.582031 107.167969 274.886719 108.214844 279.765625 C 110.5 290.359375 112.851562 301.300781 118.429688 311.210938 C 121.472656 316.605469 125.3125 321.382812 129.019531 326 L 152.042969 354.605469 C 154.851562 358.082031 157.753906 361.683594 161.703125 364.453125 C 169.195312 369.691406 178.535156 370.519531 187.605469 370.519531 C 187.941406 370.519531 188.277344 370.519531 188.613281 370.519531 C 201.121094 370.449219 215.394531 369.300781 226.492188 361.277344 C 234.921875 355.199219 240.226562 346.097656 244.902344 338.054688 L 263.945312 305.339844 C 269.328125 296.105469 274.871094 286.5625 277.921875 275.890625 C 279.894531 268.992188 280.730469 261.902344 281.542969 255.035156 C 282.238281 249.171875 282.886719 243.628906 284.195312 238.164062 C 286.382812 228.992188 290.3125 220.472656 294.464844 211.460938 C 296.003906 208.105469 297.554688 204.753906 299 201.371094 C 304.324219 188.917969 303.019531 173.046875 300.96875 159.960938 C 301.582031 159.761719 302.191406 159.566406 302.800781 159.371094 C 319.585938 153.921875 336.921875 148.277344 352.035156 138.046875 C 354.332031 136.488281 356.90625 134.570312 358.429688 131.542969 C 361.480469 125.429688 358.445312 118.398438 353.863281 114.632812 Z M 289.464844 103.007812 C 289.707031 107.96875 289.957031 112.941406 290.050781 117.695312 C 290.144531 122.757812 290.027344 127.582031 287.613281 130.828125 C 284.992188 134.367188 279.925781 135.761719 274.527344 136.984375 C 226.875 147.722656 164.371094 158.355469 103.4375 145.117188 C 96.898438 143.691406 89.84375 141.539062 86.988281 136.339844 C 85.457031 133.539062 85.199219 129.976562 85.050781 125.960938 C 84.808594 119.578125 84.800781 113.050781 84.886719 106.492188 C 84.886719 106.492188 84.886719 106.492188 84.894531 106.492188 C 86.308594 107.359375 87.8125 108.070312 89.351562 108.722656 C 89.609375 108.832031 89.867188 108.941406 90.125 109.042969 C 93.214844 110.257812 96.453125 111.109375 99.691406 111.742188 C 100.058594 111.8125 100.425781 111.882812 100.792969 111.957031 C 102.335938 112.238281 103.859375 112.503906 105.359375 112.730469 C 133.304688 116.972656 159.464844 119.09375 184.03125 119.09375 C 188.953125 119.09375 193.808594 119.007812 198.601562 118.835938 C 201.269531 118.742188 203.875 118.5625 206.5 118.414062 C 208.566406 118.296875 210.664062 118.21875 212.703125 118.070312 C 216.238281 117.8125 219.710938 117.457031 223.175781 117.105469 C 224.222656 116.996094 225.304688 116.925781 226.351562 116.808594 C 230.347656 116.363281 234.28125 115.824219 238.191406 115.242188 C 238.660156 115.171875 239.136719 115.117188 239.609375 115.046875 C 243.847656 114.398438 248.015625 113.660156 252.152344 112.863281 C 252.269531 112.839844 252.386719 112.824219 252.503906 112.800781 C 265.308594 110.296875 277.609375 107.03125 289.464844 103.023438 C 289.457031 103.007812 289.464844 103.007812 289.464844 103.007812 Z M 92.011719 33.945312 C 97.15625 30.796875 104.367188 30.625 111.351562 30.46875 L 114.347656 30.390625 C 124.367188 30.0625 133.984375 27.382812 143.292969 24.792969 C 147.695312 23.570312 152.113281 22.34375 156.574219 21.363281 C 184.882812 15.164062 215.027344 19.925781 244.128906 24.535156 C 256.492188 26.492188 269.242188 28.511719 281.800781 29.695312 C 285.382812 52.875 287.777344 74.667969 289.050781 94.890625 C 257.234375 105.925781 222.003906 111.359375 182.492188 111.226562 C 181.410156 111.226562 180.277344 111.140625 179.191406 111.125 C 172.332031 111.046875 165.402344 110.882812 158.277344 110.476562 C 155.359375 110.3125 152.300781 109.964844 149.339844 109.738281 C 143.917969 109.332031 138.546875 108.988281 132.976562 108.394531 C 124.34375 107.476562 115.527344 106.335938 106.519531 104.972656 C 98.429688 103.75 90.179688 102.050781 85.191406 96.691406 C 85.191406 96.691406 85.183594 96.683594 85.175781 96.683594 C 85.949219 75.984375 88.164062 54.753906 92.011719 33.945312 Z M 238.136719 334.117188 C 233.851562 341.476562 228.996094 349.832031 221.910156 354.933594 C 212.601562 361.660156 199.832031 362.628906 188.558594 362.691406 C 180.964844 362.707031 172.449219 362.417969 166.175781 358.027344 C 163.140625 355.90625 160.710938 352.882812 158.128906 349.691406 L 140.734375 328.082031 C 140.53125 325.398438 140.34375 322.832031 140.171875 320.324219 C 139.96875 317.40625 139.765625 314.476562 139.507812 311.289062 C 139.195312 307.320312 138.867188 303.210938 140.046875 299.71875 C 141.445312 295.59375 145.269531 291.875 150.550781 289.527344 C 154.265625 287.882812 168.015625 287.929688 176.25 287.898438 C 180.707031 287.90625 184.648438 287.90625 186.878906 287.726562 C 188.191406 287.625 190.5 287.40625 193.347656 287.140625 C 202.175781 286.292969 218.5625 284.761719 222.660156 285.152344 C 226.640625 285.574219 231.175781 286.199219 234.539062 288.425781 C 237.792969 290.570312 240.28125 294.46875 241.546875 299.398438 C 242.765625 304.222656 242.773438 309.476562 242.78125 314.5625 L 242.835938 326.046875 Z M 291.796875 198.289062 C 290.375 201.605469 288.863281 204.902344 287.355469 208.191406 C 283.226562 217.160156 278.953125 226.421875 276.578125 236.355469 C 275.160156 242.265625 274.457031 248.296875 273.769531 254.136719 C 272.957031 260.992188 272.199219 267.460938 270.398438 273.753906 C 267.621094 283.476562 262.3125 292.597656 257.1875 301.410156 L 250.605469 312.730469 C 250.582031 307.894531 250.441406 302.601562 249.132812 297.472656 C 247.390625 290.648438 243.746094 285.113281 238.855469 281.894531 C 234.03125 278.707031 228.390625 277.886719 223.496094 277.378906 C 219.03125 276.878906 205.789062 278.097656 192.621094 279.351562 C 189.835938 279.617188 187.566406 279.835938 186.285156 279.9375 C 184.179688 280.101562 180.519531 280.09375 176.273438 280.085938 C 162.75 280.101562 152.230469 280.234375 147.390625 282.386719 C 140.023438 285.667969 134.792969 290.9375 132.65625 297.222656 C 130.949219 302.242188 131.367188 307.382812 131.734375 311.933594 C 131.882812 313.820312 132 315.519531 132.125 317.273438 C 129.628906 314.085938 127.1875 310.828125 125.25 307.390625 C 120.261719 298.515625 118.03125 288.15625 115.878906 278.136719 C 114.816406 273.207031 113.535156 267.84375 112.257812 262.464844 C 110.984375 257.125 109.71875 251.792969 108.660156 246.886719 C 108.511719 246.214844 108.191406 245.59375 107.738281 245.085938 C 100.832031 237.453125 95.710938 226.0625 91.046875 215.046875 C 84.207031 198.882812 78.824219 184.34375 81.976562 170.183594 C 84.566406 170.777344 87.152344 171.332031 89.757812 171.835938 C 89.765625 171.851562 89.757812 171.875 89.765625 171.890625 C 91.300781 175.78125 93.550781 179.84375 95.742188 183.773438 C 98.683594 189.074219 101.730469 194.546875 102.929688 199.46875 C 103.0625 200 103.484375 201.113281 104.414062 202.09375 L 105.523438 218.726562 C 105.863281 223.847656 106.417969 232.425781 112.34375 237.578125 C 116.503906 241.203125 121.878906 242.03125 127.0625 242.394531 C 130.066406 242.597656 133.085938 242.699219 136.113281 242.699219 C 139.734375 242.699219 143.363281 242.550781 146.96875 242.25 C 153.554688 241.71875 161.09375 240.539062 167.082031 235.886719 C 174.609375 230.0625 177.476562 220.347656 179.574219 213.246094 C 180.496094 210.109375 182.164062 204.402344 181.710938 198.6875 C 184.96875 197.878906 188.613281 197.683594 192.335938 198.128906 C 194.332031 198.382812 196.304688 198.859375 198.25 199.445312 C 198 204.902344 199.523438 210.25 200.410156 213.246094 C 202.496094 220.332031 205.351562 230.046875 212.882812 235.886719 C 218.890625 240.539062 226.421875 241.710938 233.007812 242.25 C 236.613281 242.550781 240.242188 242.699219 243.863281 242.699219 C 246.898438 242.699219 249.90625 242.597656 252.910156 242.394531 C 258.097656 242.03125 263.46875 241.203125 267.628906 237.578125 C 273.558594 232.425781 274.113281 223.847656 274.449219 218.734375 L 275.558594 202.09375 C 276.492188 201.113281 276.914062 200 277.046875 199.445312 C 279.007812 191.421875 288.449219 172.101562 293.554688 163.105469 C 295.238281 174.699219 296.121094 188.195312 291.796875 198.289062 Z M 262.289062 184.34375 C 258.878906 183.867188 256.78125 183.9375 254.554688 183.984375 C 253.152344 184.023438 251.636719 184.0625 249.5625 183.953125 C 245.753906 183.742188 242.390625 183.351562 239.160156 182.984375 C 233.023438 182.277344 227.179688 181.621094 219.734375 182.207031 C 213.40625 182.699219 206.859375 183.601562 202.378906 188.46875 C 201.417969 189.511719 200.691406 190.648438 200.089844 191.828125 C 197.84375 191.179688 195.574219 190.640625 193.277344 190.347656 C 188.386719 189.738281 183.828125 190.160156 179.542969 191.273438 C 178.996094 190.292969 178.363281 189.347656 177.546875 188.46875 C 173.066406 183.601562 166.519531 182.707031 160.195312 182.207031 C 152.699219 181.613281 146.914062 182.277344 140.765625 182.984375 C 137.535156 183.351562 134.171875 183.742188 130.363281 183.953125 C 128.292969 184.070312 126.78125 184.03125 125.375 183.984375 C 123.144531 183.9375 121.050781 183.867188 117.648438 184.34375 C 114.503906 184.777344 110.257812 185.855469 107.347656 189.066406 C 105.902344 185.988281 104.226562 182.9375 102.5625 179.9375 C 101.300781 177.667969 100.128906 175.492188 99.066406 173.378906 C 112.085938 175.320312 125.460938 176.40625 139.828125 177.332031 C 157.160156 178.441406 174.292969 179.382812 191.210938 179.382812 C 210.648438 179.382812 229.800781 178.144531 248.632812 174.519531 C 260.347656 172.265625 271.890625 169.039062 283.289062 165.546875 C 279.597656 172.632812 275.339844 181.566406 272.425781 188.886719 C 269.507812 185.824219 265.371094 184.765625 262.289062 184.34375 Z M 267.792969 200.542969 L 266.621094 218.195312 C 266.277344 223.472656 265.675781 228.863281 262.476562 231.652344 C 260.050781 233.757812 256.179688 234.296875 252.355469 234.554688 C 246.152344 234.996094 239.859375 234.941406 233.625 234.429688 C 228.179688 233.984375 222.035156 233.070312 217.644531 229.679688 C 212.53125 225.71875 210.199219 218.882812 207.886719 211.015625 C 206.007812 204.660156 204.570312 197.652344 208.136719 193.777344 C 210.695312 190.992188 215.371094 190.402344 220.34375 190.011719 C 222.152344 189.871094 223.847656 189.816406 225.484375 189.816406 C 229.917969 189.816406 233.882812 190.269531 238.277344 190.773438 C 241.648438 191.15625 245.152344 191.554688 249.125 191.773438 C 251.496094 191.914062 253.191406 191.867188 254.773438 191.820312 C 256.828125 191.742188 258.457031 191.71875 261.226562 192.101562 C 264.398438 192.550781 266.347656 193.347656 267.167969 194.5625 C 268.027344 195.859375 267.957031 198.128906 267.792969 200.542969 Z M 172.050781 211.015625 C 169.726562 218.882812 167.382812 225.71875 162.273438 229.679688 C 157.894531 233.078125 151.746094 233.992188 146.304688 234.429688 C 140.070312 234.925781 133.773438 234.980469 127.574219 234.554688 C 123.746094 234.296875 119.875 233.75 117.453125 231.652344 C 114.253906 228.875 113.652344 223.472656 113.308594 218.1875 L 112.132812 200.542969 C 111.96875 198.121094 111.90625 195.851562 112.765625 194.554688 C 113.582031 193.339844 115.535156 192.535156 118.71875 192.09375 C 120.550781 191.84375 121.878906 191.773438 123.160156 191.773438 C 123.820312 191.773438 124.46875 191.789062 125.164062 191.8125 C 126.75 191.859375 128.449219 191.90625 130.808594 191.765625 C 134.785156 191.546875 138.289062 191.148438 141.65625 190.765625 C 147.679688 190.066406 152.875 189.488281 159.589844 190.003906 C 164.566406 190.402344 169.234375 190.984375 171.800781 193.769531 C 175.359375 197.644531 173.917969 204.667969 172.050781 211.015625 Z M 351.429688 128.042969 C 350.75 129.382812 349.1875 130.523438 347.636719 131.574219 C 333.449219 141.1875 316.636719 146.652344 300.25 151.964844 C 282.984375 157.570312 265.136719 163.363281 247.148438 166.824219 C 212.84375 173.441406 177.039062 171.882812 140.328125 169.519531 C 118.648438 168.117188 99.160156 166.574219 80.222656 161.800781 C 58.574219 156.351562 41.011719 147.292969 28.011719 134.890625 C 25.960938 132.925781 23.960938 130.789062 23.210938 128.425781 C 22.632812 126.609375 23.046875 124.503906 24.15625 123.738281 C 25.296875 122.945312 27.542969 123.023438 29.488281 123.101562 C 42.988281 123.558594 62.070312 122.101562 77.191406 119.523438 C 77.238281 121.757812 77.160156 124.050781 77.246094 126.25 C 77.433594 131.089844 77.792969 135.792969 80.144531 140.089844 C 84.503906 148.050781 93.527344 150.964844 101.785156 152.75 C 122.636719 157.28125 143.605469 159.097656 164.105469 159.097656 C 205 159.097656 244.003906 151.878906 276.265625 144.601562 C 282.886719 143.105469 289.699219 141.171875 293.910156 135.488281 C 297.789062 130.257812 298 123.753906 297.890625 117.535156 C 297.851562 115.515625 297.703125 113.347656 297.640625 111.296875 C 313.257812 112.535156 328.132812 114.453125 338.011719 116.527344 C 342.164062 117.402344 346.121094 118.375 348.921875 120.675781 C 351.015625 122.421875 352.582031 125.734375 351.429688 128.042969 Z M 351.429688 128.042969 " fill-opacity="1" fill-rule="nonzero"/></svg>